PathFileType	4	(X/Y/Z)	C:/Users/opensim2020/Desktop/walking_exp_matlab/subject06_walking18_straight_02.trc	
DataRate	CameraRate	NumFrames	NumMarkers	Units	OrigDataRate	OrigDataStartFrame	OrigNumFrames	
100.00	100.00	4	47	mm	100.00	2374	326	
Frame#	Time	LFHD			RFHD			LBHD			RBHD			C7			T10			CLAV			STRN			RBAK			LSHO			LUPA			LELB			LFRM			LWRA			LWRB			LFIN			RSHO			RUPA			RELB			RFRM			RWRA			RWRB			RFIN			LASI			RASI			LPSI			RPSI			LTHI			LKNE			LTIB			LANK			LHEE			LTOE			RTHI			RKNE			RTIB			RANK			RHEE			RTOE			*39			*40			*41			*42			*43			*44			*45			*46			
		X1	Y1	Z1	X2	Y2	Z2	X3	Y3	Z3	X4	Y4	Z4	X5	Y5	Z5	X6	Y6	Z6	X7	Y7	Z7	X8	Y8	Z8	X9	Y9	Z9	X10	Y10	Z10	X11	Y11	Z11	X12	Y12	Z12	X13	Y13	Z13	X14	Y14	Z14	X15	Y15	Z15	X16	Y16	Z16	X17	Y17	Z17	X18	Y18	Z18	X19	Y19	Z19	X20	Y20	Z20	X21	Y21	Z21	X22	Y22	Z22	X23	Y23	Z23	X24	Y24	Z24	X25	Y25	Z25	X26	Y26	Z26	X27	Y27	Z27	X28	Y28	Z28	X29	Y29	Z29	X30	Y30	Z30	X31	Y31	Z31	X32	Y32	Z32	X33	Y33	Z33	X34	Y34	Z34	X35	Y35	Z35	X36	Y36	Z36	X37	Y37	Z37	X38	Y38	Z38	X39	Y39	Z39	X40	Y40	Z40	X41	Y41	Z41	X42	Y42	Z42	X43	Y43	Z43	X44	Y44	Z44	X45	Y45	Z45	X46	Y46	Z46	X47	Y47	Z47	

123	1.220	-952.81482	483.82788	1652.09814	-1085.03540	476.76254	1648.35364	-963.03174	617.07214	1598.64319	-1091.91736	608.03375	1599.77649	-1025.78882	618.17047	1445.04822	-1045.47571	656.01831	1116.57141	-1027.70581	509.17374	1366.61926	-1030.49902	472.05603	1190.50085	-1115.68420	690.44812	1278.44971	-865.16461	565.19312	1391.51355	-800.49683	598.11945	1190.03687	-792.07153	622.23676	1080.36963	-768.42584	620.35803	930.10126	-804.61365	570.63232	809.29346	-773.21179	635.23517	811.91827	-769.85974	603.76453	725.92731	-1187.98157	549.40997	1406.37280	-1284.14392	585.23346	1211.38831	-1297.28821	575.11591	1089.73108	-1310.32178	544.39996	973.61023	-1266.79041	469.19742	846.05536	-1314.24915	516.57117	839.52728	-1309.51428	468.73053	769.94049	-936.20337	473.94101	964.56128	-1156.37317	484.88309	956.13806	-958.14026	634.50165	985.35425	-1126.16467	634.79761	979.62323	-866.46350	506.79846	651.42938	-889.23889	485.06552	489.68524	-898.07562	476.97775	232.96104	-941.62640	448.38672	62.85252	-989.27643	483.69141	46.34230	-945.42377	301.35995	43.95874	-1196.75464	547.27777	615.65033	-1177.12219	548.80383	488.48962	-1177.65015	708.84216	273.30060	-1140.58240	822.89954	124.09666	-1098.88110	872.54681	119.80067	-1131.48840	702.64752	32.58508	-1015.52826	580.45129	1694.25720																					 
124	1.230	-951.10425	477.56924	1653.01880	-1083.38281	470.73013	1649.40833	-961.29181	611.06818	1600.09607	-1090.18762	602.11597	1601.29395	-1024.17200	612.28882	1445.98718	-1043.51599	649.43677	1117.56519	-1026.29346	503.16269	1367.89978	-1029.00964	465.46814	1191.94104	-1114.11426	684.40887	1279.44958	-863.69055	559.09259	1392.82971	-798.77747	590.65088	1191.23730	-790.35382	613.81042	1081.35950	-767.78387	610.38538	930.97766	-804.70984	560.93817	810.30902	-772.04071	625.28015	812.75531	-769.54871	593.48480	726.86267	-1186.34119	543.85718	1407.67041	-1282.57605	579.55255	1212.74451	-1295.58557	569.90625	1091.00159	-1308.90234	539.85657	974.70166	-1265.94617	465.13464	846.57379	-1313.25488	512.93658	840.44482	-1308.58337	465.52087	770.35779	-934.36658	467.17688	965.35376	-1154.33557	478.14362	957.56354	-955.99927	627.38110	986.46509	-1123.93848	628.08514	980.89124	-865.10651	502.12918	651.80786	-887.72467	482.38351	489.67566	-897.36700	476.01709	232.99107	-941.49866	448.26022	62.74133	-989.13757	483.70071	46.39649	-945.29041	301.37177	43.55192	-1196.31091	538.38617	616.79681	-1177.35132	537.89270	489.43637	-1177.11621	701.30792	277.35867	-1139.87708	817.45972	129.99025	-1097.58655	866.70306	127.59296	-1131.14148	701.73334	32.67892	-1013.68909	574.09021	1695.62000																					 
125	1.240	-949.43939	471.54398	1653.82568	-1081.71948	464.75732	1650.35938	-959.54187	605.10284	1601.32166	-1088.43542	596.32526	1602.68872	-1022.59668	606.54828	1446.77539	-1041.52515	643.27716	1118.56592	-1024.80798	497.21353	1369.05310	-1027.44739	458.90509	1193.28198	-1112.37952	678.22943	1280.21936	-862.21594	553.00104	1394.09351	-797.02429	583.23553	1192.37476	-788.62341	605.48737	1082.31287	-766.25647	601.12762	931.96765	-805.95197	553.16046	811.09290	-771.07166	615.09845	813.55249	-769.18744	582.84265	727.88080	-1184.75220	538.38403	1408.84314	-1281.17761	573.94141	1214.09717	-1293.98730	564.78131	1092.17651	-1307.58203	535.33466	975.72797	-1265.05383	461.13760	847.04260	-1312.05566	509.06610	841.20264	-1307.56372	462.22726	770.71338	-932.63647	460.37918	965.92151	-1152.27405	471.54337	958.92810	-953.72028	620.24683	987.49841	-1121.55774	621.46552	981.98291	-864.00732	497.94180	652.05768	-886.18842	479.62915	489.63342	-896.95056	474.89343	233.04613	-941.50024	448.11801	62.64850	-989.11060	483.60782	46.43273	-945.24036	301.29260	43.16731	-1196.02747	529.17896	617.94250	-1178.04590	526.54297	490.47461	-1176.89001	693.06653	281.32959	-1139.41431	811.44055	136.01578	-1096.39185	859.84296	135.17456	-1130.82117	700.63544	32.93901	-1011.85846	567.95789	1696.82593																					 
126	1.250	-947.80908	465.69571	1654.68555	-1080.10254	458.95044	1651.21912	-957.83417	599.26343	1602.30066	-1086.74658	590.66907	1603.78027	-1020.94885	600.69415	1447.40747	-1039.26514	636.79742	1119.24475	-1023.25751	491.10681	1370.11072	-1025.87195	452.43039	1194.47571	-1110.40710	672.15021	1280.78528	-860.72473	546.94269	1395.28394	-795.20233	575.88385	1193.43701	-786.85315	597.08606	1083.14404	-765.11151	591.06311	932.79706	-805.34576	542.51929	812.58728	-769.95715	604.60425	814.29822	-768.79913	571.87817	728.82843	-1183.09448	532.85400	1409.79565	-1279.73315	568.46069	1215.25769	-1292.41553	559.53375	1093.19604	-1306.26404	530.70526	976.57727	-1264.17029	457.06100	847.42444	-1311.10645	505.17731	841.91272	-1306.54590	458.84161	770.97473	-931.01520	453.65152	966.23651	-1150.35767	465.18094	960.20374	-951.35510	613.24408	988.42004	-1119.18738	615.39514	983.11322	-862.59180	493.36710	652.19794	-884.73541	476.57019	489.52637	-896.23370	473.89590	232.87126	-941.49927	447.82755	62.56123	-989.08679	483.45358	46.58783	-945.27130	301.12070	42.64847	-1195.83215	519.84808	619.10614	-1178.81543	515.31366	491.65488	-1176.85706	684.30762	285.54065	-1139.23560	804.92981	142.15465	-1095.72595	852.66656	143.10541	-1130.69019	699.39673	33.57122	-1010.10327	562.01349	1697.79529																					 
